<svg xmlns="http://www.w3.org/2000/svg" xmlns:xlink="http://www.w3.org/1999/xlink" width="160" height="181">
    <defs>
        <style>
        .cls-1 {
            fill: none;
        }

        .cls-2 {
            clip-path: url(#clip-path);
        }

        .cls-3,
        .cls-6 {
            fill: #ff8080;
        }

        .cls-4,
        .cls-8 {
            fill: #ababab;
        }

        .cls-5,
        .cls-7 {
            fill: #05385c;
        }

        .cls-6,
        .cls-7,
        .cls-8 {
            fill-rule: evenodd;
        }
        .c-1, .c-2, .c-3, .c-4, .c-5, .c-6, .c-7 {
          animation-iteration-count: infinite;
          animation-timing-function: linear;
        }
        .c-1 {
          animation-name: transform1;
					animation-duration: 9s;
        }
        .c-2 {
          animation-name: transform2;
        	animation-duration: 6s;
        }
        .c-3 {
          animation-name: transform3;
          animation-duration: 5s;
        }
        .c-4 {
          animation-name: transform4;
          animation-duration: 8s;
        }
        .c-5 {
          animation-name: transform5;
          animation-duration: 10s;
        }
        .c-6 {
          animation-name: transform6;
        	animation-duration: 4s;
        }
        .c-7 {
          animation-name: transform7;
          animation-duration: 7s;
        }
        @keyframes transform1 {
            50% {
                transform: translateX(10px);
            }
        }
        @keyframes transform2 {
            50% {
                transform: translateY(5px);
            }
        }
        @keyframes transform3 {
            50% {
                transform: translate(4px, 8px);
            }
        }
        @keyframes transform4 {
            50% {
                transform: translate(6px, 3px);
            }
        }
        @keyframes transform5 {
            50% {
                transform: translate(9px, 6px);
            }
        }
        @keyframes transform6 {
            50% {
                transform: translateX(4px);
            }
        }
        @keyframes transform7 {
            50% {
                transform: translateY(6px);
            }
        }
        </style>
        <clipPath id="clip-path" transform="translate(-133.22 -237.59)">
            <rect class="cls-1" width="292.92" height="418.84" />
        </clipPath>
    </defs>
    <title>Ресурс 1</title>
    <g id="Слой_2" data-name="Слой 2">
        <g id="Logo_usage_2" data-name="Logo usage 2">
            <g class="cls-2">
                <path class="cls-3" d="M242,446.54a92.44,92.44,0,0,1-83.54-52l-.81-1.65a93.08,93.08,0,0,1,42.5-124.44l1.66-.81a92.9,92.9,0,0,1,124.44,42.5l.81,1.66a93,93,0,0,1-42.51,124.43l-1.65.82A92.16,92.16,0,0,1,242,446.54Zm.71-185.44a89,89,0,0,0-39.56,9.22l-1.66.81a90.05,90.05,0,0,0-41.12,120.38l.81,1.66a89.89,89.89,0,0,0,120.38,41.12l1.66-.82a90,90,0,0,0,41.12-120.38l-.82-1.65A89.42,89.42,0,0,0,242.69,261.1Z" transform="translate(-133.22 -237.59)" />
                <path class="cls-4" d="M234.31,437.3a86,86,0,0,1-77.69-48.4l-.75-1.51a86.47,86.47,0,0,1,39.54-115.73l1.51-.75a86.43,86.43,0,0,1,115.73,39.53l.74,1.52a86.46,86.46,0,0,1-39.53,115.73l-1.51.74A85.65,85.65,0,0,1,234.31,437.3ZM235,268.11a79.67,79.67,0,0,0-35.37,8.25l-1.51.74a80.42,80.42,0,0,0-36.76,107.62l.74,1.51A80.37,80.37,0,0,0,269.68,423l1.51-.75A80.4,80.4,0,0,0,308,314.63l-.74-1.51A80,80,0,0,0,235,268.11Z" transform="translate(-133.22 -237.59)" />
                <path class="cls-5" d="M228,426.92a77.89,77.89,0,0,1-70.4-43.85l-.69-1.39a78.38,78.38,0,0,1,35.82-104.87l1.4-.68A78.31,78.31,0,0,1,299,312l.69,1.39A78.45,78.45,0,0,1,263.86,418.2l-1.4.69A77.57,77.57,0,0,1,228,426.92Zm.59-155.79a74.65,74.65,0,0,0-33.13,7.72l-1.39.68a75.34,75.34,0,0,0-34.43,100.81l.68,1.39a75.26,75.26,0,0,0,100.81,34.43l1.39-.68A75.4,75.4,0,0,0,297,314.68l-.68-1.4A74.88,74.88,0,0,0,228.59,271.13Z" transform="translate(-133.22 -237.59)" />
                <path class="cls-3" d="M242.43,447.17a92.9,92.9,0,0,1-84-52.3l-.82-1.66a93.46,93.46,0,0,1,42.72-125.07l1.67-.82A93.38,93.38,0,0,1,327.1,310l.82,1.67A93.46,93.46,0,0,1,285.2,436.78l-1.66.81A92.56,92.56,0,0,1,242.43,447.17Zm.71-186.4A89.6,89.6,0,0,0,203.37,270l-1.67.82a90.44,90.44,0,0,0-41.33,121l.82,1.67a90.36,90.36,0,0,0,121,41.33l1.67-.82A90.43,90.43,0,0,0,325.2,313l-.82-1.66A89.9,89.9,0,0,0,243.14,260.77Z" transform="translate(-133.22 -237.59)" />
            </g>
            <g class="c-1">
            	<path class="cls-6" d="M176.57,311.92a7,7,0,1,1-7,7,7,7,0,0,1,7-7" transform="translate(-133.22 -237.59)" />
            </g>
            <g class="c-2">
            	<path class="cls-3" d="M257,254.37A8.39,8.39,0,1,1,265.4,246,8.41,8.41,0,0,1,257,254.37Zm0-13.93a5.54,5.54,0,1,0,5.54,5.54A5.55,5.55,0,0,0,257,240.44Z" transform="translate(-133.22 -237.59)" />
            </g>
            <g class="c-3">
            	<path class="cls-5" d="M173,374.65a8.39,8.39,0,1,1,8.39-8.38A8.39,8.39,0,0,1,173,374.65Zm0-13.92a5.54,5.54,0,1,0,5.54,5.54A5.54,5.54,0,0,0,173,360.73Z" transform="translate(-133.22 -237.59)" />
            </g>
            <g class="c-4">
            	<path class="cls-7" d="M219.82,275a4.26,4.26,0,1,1-4.26,4.25,4.25,4.25,0,0,1,4.26-4.25" transform="translate(-133.22 -237.59)" />
            </g>
            <g class="c-5">
            	<path class="cls-8" d="M243.78,278.31a4.26,4.26,0,1,1-4.26,4.26,4.26,4.26,0,0,1,4.26-4.26" transform="translate(-133.22 -237.59)" />
            </g>
            <g class="c-6">
            	<path class="cls-6" d="M137.48,351.76a4.26,4.26,0,1,1-4.26,4.26,4.26,4.26,0,0,1,4.26-4.26" transform="translate(-133.22 -237.59)" />
            </g>
            <g class="c-7">
            	<path class="cls-7" d="M234.41,239.85a4.26,4.26,0,1,1-4.26,4.25,4.25,4.25,0,0,1,4.26-4.25" transform="translate(-133.22 -237.59)" />
            </g>
        </g>
    </g>
</svg>